 <svg version="1.0" xmlns="http://www.w3.org/2000/svg" width="700.000000pt" height="149.000000pt" viewBox="0 0 700.000000 149.000000" preserveAspectRatio="xMidYMid meet">
<metadata>
Created by potrace 1.12, written by Peter Selinger 2001-2015
</metadata>
<g transform="translate(0.000000,149.000000) scale(0.100000,-0.100000)" fill="#000000" stroke="none">
<path d="M1345 1368 c-51 -29 -58 -72 -19 -112 32 -32 72 -34 108 -5 35 28 35
72 0 104 -29 27 -57 31 -89 13z"></path>
<path d="M1695 1370 c-22 -5 -61 -9 -87 -9 -26 -1 -49 -5 -52 -10 -3 -4 11
-19 32 -32 l37 -24 3 -245 c1 -135 0 -255 -3 -267 -3 -13 -16 -25 -30 -29 -24
-6 -35 -23 -15 -25 16 0 229 0 243 1 6 0 -3 13 -20 28 l-33 27 -2 295 c-3 327
2 305 -73 290z"></path>
<path d="M20 1320 c0 -5 15 -16 33 -23 46 -20 60 -40 102 -142 20 -49 44 -106
52 -125 8 -19 19 -44 23 -55 4 -11 17 -41 29 -67 12 -26 21 -51 21 -54 0 -6
21 -55 43 -101 8 -18 19 -23 51 -23 44 0 39 -5 76 85 4 11 15 36 23 55 8 19
27 64 42 100 30 72 43 103 98 230 26 58 48 83 85 94 12 4 22 14 22 22 0 11
-22 14 -116 14 -86 0 -115 -3 -112 -12 3 -7 20 -16 39 -21 40 -11 50 -23 43
-57 -11 -46 -136 -360 -144 -360 -4 0 -10 6 -13 13 -120 291 -153 377 -147
386 3 7 20 15 35 19 16 5 30 13 33 20 3 9 -37 12 -157 12 -99 0 -161 -4 -161
-10z"></path>
<path d="M2304 1309 c-62 -23 -138 -88 -157 -132 -33 -77 -37 -91 -37 -151 0
-104 39 -184 116 -239 125 -88 318 -75 413 28 43 47 48 59 30 71 -7 4 -27 -9
-46 -30 -51 -54 -88 -70 -164 -70 -57 0 -72 4 -102 26 -59 46 -80 105 -80 233
0 93 4 117 23 158 67 142 238 125 307 -30 13 -30 29 -53 38 -53 12 0 15 18 15
105 0 91 -2 105 -17 105 -9 0 -24 -7 -33 -15 -15 -13 -22 -13 -66 0 -69 21
-178 18 -240 -6z"></path>
<path d="M6237 1263 c-4 -3 -7 -32 -7 -64 l0 -58 -37 -3 c-55 -4 -57 -33 -3
-42 l40 -6 0 -141 c0 -153 9 -186 55 -207 57 -26 196 -4 203 31 3 14 -5 17
-41 17 -71 0 -81 19 -85 159 -1 64 2 122 7 130 5 8 28 15 53 16 67 3 70 4 66
23 -2 13 -16 18 -63 22 l-60 5 -3 63 -3 62 -58 0 c-32 0 -61 -3 -64 -7z"></path>
<path d="M876 1125 c-91 -26 -128 -74 -90 -116 41 -46 134 -10 120 47 -8 32 8
54 41 54 41 0 61 -17 68 -60 9 -54 -2 -65 -89 -90 -106 -31 -124 -40 -151 -72
-46 -55 -20 -136 50 -154 40 -10 112 1 141 22 55 39 56 40 61 26 3 -7 14 -22
26 -33 23 -21 106 -27 152 -9 30 12 25 30 -9 30 -41 0 -46 19 -44 146 3 139
-7 169 -65 198 -50 24 -148 29 -211 11z m142 -231 c2 -39 -2 -56 -18 -77 -46
-58 -124 -16 -104 56 7 24 21 38 54 55 24 12 49 21 55 19 5 -2 11 -26 13 -53z"></path>
<path d="M1428 1135 c-3 -4 -42 -9 -87 -13 -45 -4 -82 -11 -83 -17 0 -5 12
-17 28 -26 l29 -16 3 -146 3 -147 -26 -12 c-49 -22 -20 -31 96 -30 157 1 148
0 121 22 -12 10 -28 20 -35 23 -9 2 -13 53 -17 182 -5 165 -11 201 -32 180z"></path>
<path d="M2881 1121 c-33 -12 -69 -34 -95 -60 -40 -40 -41 -43 -44 -119 -2
-63 1 -83 17 -108 48 -77 168 -125 263 -104 91 19 135 44 168 96 25 39 30 59
30 106 0 33 -7 72 -14 87 -24 45 -80 88 -139 105 -71 21 -119 20 -186 -3z
m140 -21 c32 -18 49 -75 49 -169 0 -97 -18 -146 -61 -170 -85 -47 -149 77
-121 238 16 96 68 135 133 101z"></path>
<path d="M3454 1134 c-6 -3 -46 -8 -89 -12 -80 -7 -109 -26 -60 -38 14 -3 30
-14 35 -24 12 -22 13 -270 2 -286 -4 -6 -17 -16 -30 -23 -12 -7 -21 -15 -18
-19 2 -4 55 -7 117 -7 114 1 144 11 100 35 -20 10 -21 20 -21 140 0 127 0 129
26 149 36 28 88 28 108 -1 13 -18 16 -51 16 -150 0 -118 -2 -128 -21 -142 -37
-25 -13 -32 97 -30 108 3 131 8 104 24 -46 28 -45 25 -45 151 l0 121 30 24
c37 30 85 31 110 4 16 -18 19 -39 19 -146 l1 -126 -30 -24 c-34 -27 -41 -26
108 -26 99 0 142 8 110 19 -7 3 -22 12 -32 21 -18 15 -20 34 -24 160 -5 162
-12 177 -86 202 -50 16 -95 7 -156 -31 l-48 -30 -26 24 c-43 40 -93 53 -148
39 -25 -7 -58 -22 -73 -32 -36 -26 -38 -25 -42 7 -3 27 -14 35 -34 27z"></path>
<path d="M4338 1135 c-3 -3 -40 -9 -83 -13 -77 -7 -107 -24 -66 -37 47 -15 51
-29 51 -170 0 -108 -3 -137 -16 -149 -8 -9 -22 -16 -30 -16 -17 0 -19 -20 -1
-21 54 -3 220 1 225 5 3 3 -7 17 -21 30 -26 24 -27 28 -27 140 l0 114 31 27
c24 20 41 25 68 23 53 -5 61 -29 59 -178 -3 -119 -4 -125 -26 -135 -12 -5 -21
-14 -19 -18 3 -10 224 -14 233 -4 3 3 -6 13 -20 22 -26 17 -26 19 -26 145 0
128 0 129 27 150 19 14 38 20 62 18 55 -5 71 -46 71 -176 0 -103 0 -104 -30
-132 -19 -17 -25 -29 -17 -32 28 -8 231 -2 234 7 1 6 -11 18 -27 27 l-30 17 0
133 c0 152 -13 188 -75 214 -60 25 -110 14 -202 -46 -20 -13 -24 -12 -42 11
-30 39 -92 56 -148 41 -25 -7 -58 -22 -73 -32 -37 -27 -48 -25 -52 7 -3 25
-18 40 -30 28z"></path>
<path d="M5216 1120 c-90 -35 -136 -99 -136 -191 0 -124 84 -197 231 -198 76
-1 122 15 174 60 28 25 33 34 24 46 -10 12 -15 11 -33 -5 -65 -57 -165 -55
-217 4 -9 11 -22 36 -30 56 -21 61 -9 67 144 70 l132 3 3 37 c3 31 -2 42 -35
75 -62 62 -164 79 -257 43z m128 -32 c7 -13 17 -40 20 -60 6 -34 5 -38 -19
-44 -27 -7 -112 0 -121 9 -10 10 7 65 27 92 26 33 73 34 93 3z"></path>
<path d="M5705 1129 c-22 -4 -61 -8 -87 -8 -57 -1 -69 -15 -30 -35 16 -8 32
-23 36 -31 3 -9 6 -77 6 -151 l0 -133 -31 -16 c-17 -9 -29 -19 -26 -22 9 -8
226 -10 240 -1 9 5 6 11 -8 22 -11 9 -23 16 -27 16 -5 0 -8 58 -8 129 l0 130
29 20 c16 12 45 21 64 21 58 0 67 -23 67 -172 0 -128 0 -129 -25 -140 -50 -23
-20 -32 99 -30 65 1 120 3 123 5 2 2 -12 16 -32 31 l-35 27 0 130 c0 105 -3
137 -17 160 -18 29 -76 59 -117 59 -32 0 -96 -27 -123 -52 -24 -22 -28 -19
-35 26 -4 24 -12 26 -63 15z"></path>
<path d="M6633 1124 c-57 -21 -93 -65 -93 -113 0 -55 47 -96 145 -126 91 -28
105 -38 105 -76 0 -40 -38 -63 -91 -56 -51 7 -83 28 -117 77 -40 59 -56 49
-53 -30 1 -36 5 -67 7 -70 3 -2 14 1 24 8 15 9 32 8 81 -4 94 -24 194 -2 245
53 33 36 34 110 2 140 -30 27 -74 49 -118 58 -42 9 -100 36 -100 46 0 4 -3 14
-6 22 -8 23 31 57 66 57 42 0 84 -23 116 -65 14 -19 31 -35 36 -35 5 0 8 28 6
63 -2 50 -6 61 -18 58 -17 -6 -49 -5 -135 3 -41 4 -73 1 -102 -10z"></path>
<path d="M5350 555 c-130 -17 -213 -38 -315 -79 -192 -78 -354 -101 -795 -116
-483 -15 -1723 -13 -2030 5 -295 17 -334 21 -835 75 -420 46 -553 30 -629 -78
-62 -87 -28 -185 81 -239 56 -27 64 -28 203 -28 80 0 186 6 235 13 758 107
1045 123 2550 142 903 11 1001 6 1205 -60 181 -58 251 -65 635 -64 208 1 441
8 575 18 124 9 298 21 388 28 89 6 162 14 162 18 0 15 -124 20 -555 20 -247 0
-456 4 -464 9 -25 16 -4 39 41 45 24 3 254 8 513 11 258 4 472 8 474 11 2 2 2
6 -1 9 -3 3 -233 10 -512 15 -278 5 -511 12 -516 15 -15 9 -12 32 4 38 7 3
241 9 520 13 278 4 506 10 506 15 0 14 -80 18 -545 24 -384 6 -473 9 -485 21
-37 36 -7 39 515 44 455 5 547 9 504 24 -43 16 -1000 66 -1214 65 -66 -1 -163
-7 -215 -14z"></path>
</g>
</svg>